<mxfile host="app.diagrams.net" agent="Mozilla/5.0 (Macintosh; Intel Mac OS X 10_15_7) AppleWebKit/537.36 (KHTML, like Gecko) Chrome/140.0.0.0 Safari/537.36" version="27.2.0">
  <diagram name="Page-1" id="IVsfAVLxhLEO3IoU4UiJ">
    <mxGraphModel dx="1002" dy="644" grid="1" gridSize="10" guides="1" tooltips="1" connect="1" arrows="1" fold="1" page="1" pageScale="1" pageWidth="2339" pageHeight="3300" math="0" shadow="0">
      <root>
        <mxCell id="0" />
        <mxCell id="1" parent="0" />
        <mxCell id="iENZt2j812Y5WJSHyIO9-3" value="" style="edgeStyle=orthogonalEdgeStyle;rounded=0;orthogonalLoop=1;jettySize=auto;html=1;" edge="1" parent="1" source="iENZt2j812Y5WJSHyIO9-1" target="iENZt2j812Y5WJSHyIO9-2">
          <mxGeometry relative="1" as="geometry" />
        </mxCell>
        <mxCell id="iENZt2j812Y5WJSHyIO9-1" value="User uploads ward level data spreadsheet - no results" style="rounded=0;whiteSpace=wrap;html=1;" vertex="1" parent="1">
          <mxGeometry x="40" y="120" width="200" height="120" as="geometry" />
        </mxCell>
        <mxCell id="iENZt2j812Y5WJSHyIO9-2" value="Data from seats up is put into the Ward seat table" style="rounded=0;whiteSpace=wrap;html=1;" vertex="1" parent="1">
          <mxGeometry x="320" y="120" width="200" height="120" as="geometry" />
        </mxCell>
        <mxCell id="iENZt2j812Y5WJSHyIO9-4" value="Can we use enrichment data upload? - No, this processes JSON. We will need to create a new way of importing the spreadsheet so that the&amp;nbsp; available seats per ward are pre-filled when the ward baseline is imported.&amp;nbsp;&lt;div&gt;&lt;br&gt;&lt;/div&gt;&lt;div&gt;Once the seats are filled, then a new version of the spreadsheet will be uploaded and the winning party seats for that ward will be updated&lt;/div&gt;" style="rounded=0;whiteSpace=wrap;html=1;" vertex="1" parent="1">
          <mxGeometry x="690" y="240" width="230" height="220" as="geometry" />
        </mxCell>
        <mxCell id="iENZt2j812Y5WJSHyIO9-7" value="" style="edgeStyle=orthogonalEdgeStyle;rounded=0;orthogonalLoop=1;jettySize=auto;html=1;" edge="1" parent="1" source="iENZt2j812Y5WJSHyIO9-5">
          <mxGeometry relative="1" as="geometry">
            <mxPoint x="320" y="340" as="targetPoint" />
          </mxGeometry>
        </mxCell>
        <mxCell id="iENZt2j812Y5WJSHyIO9-5" value="User uploads ward level data spreadsheet -&amp;nbsp; results" style="rounded=0;whiteSpace=wrap;html=1;" vertex="1" parent="1">
          <mxGeometry x="40" y="280" width="200" height="120" as="geometry" />
        </mxCell>
        <mxCell id="iENZt2j812Y5WJSHyIO9-8" value="Data from seats up is put into the Ward seat table, along with the winners and the amount os seats they have within that ward" style="rounded=0;whiteSpace=wrap;html=1;" vertex="1" parent="1">
          <mxGeometry x="320" y="300" width="200" height="120" as="geometry" />
        </mxCell>
        <mxCell id="iENZt2j812Y5WJSHyIO9-11" value="" style="edgeStyle=orthogonalEdgeStyle;rounded=0;orthogonalLoop=1;jettySize=auto;html=1;" edge="1" parent="1" source="iENZt2j812Y5WJSHyIO9-9" target="iENZt2j812Y5WJSHyIO9-10">
          <mxGeometry relative="1" as="geometry" />
        </mxCell>
        <mxCell id="iENZt2j812Y5WJSHyIO9-9" value="Go to Setup" style="rounded=0;whiteSpace=wrap;html=1;" vertex="1" parent="1">
          <mxGeometry x="40" y="900" width="170" height="100" as="geometry" />
        </mxCell>
        <mxCell id="iENZt2j812Y5WJSHyIO9-15" value="" style="edgeStyle=orthogonalEdgeStyle;rounded=0;orthogonalLoop=1;jettySize=auto;html=1;" edge="1" parent="1" source="iENZt2j812Y5WJSHyIO9-10" target="iENZt2j812Y5WJSHyIO9-14">
          <mxGeometry relative="1" as="geometry" />
        </mxCell>
        <mxCell id="iENZt2j812Y5WJSHyIO9-10" value="Click on the Ward Level Data Upload button" style="rounded=0;whiteSpace=wrap;html=1;" vertex="1" parent="1">
          <mxGeometry x="290" y="900" width="170" height="100" as="geometry" />
        </mxCell>
        <mxCell id="iENZt2j812Y5WJSHyIO9-17" value="" style="edgeStyle=orthogonalEdgeStyle;rounded=0;orthogonalLoop=1;jettySize=auto;html=1;" edge="1" parent="1" source="iENZt2j812Y5WJSHyIO9-14" target="iENZt2j812Y5WJSHyIO9-16">
          <mxGeometry relative="1" as="geometry" />
        </mxCell>
        <mxCell id="iENZt2j812Y5WJSHyIO9-14" value="Select the spreadsheet from your computer" style="rounded=0;whiteSpace=wrap;html=1;" vertex="1" parent="1">
          <mxGeometry x="540" y="900" width="170" height="100" as="geometry" />
        </mxCell>
        <mxCell id="iENZt2j812Y5WJSHyIO9-19" value="" style="edgeStyle=orthogonalEdgeStyle;rounded=0;orthogonalLoop=1;jettySize=auto;html=1;" edge="1" parent="1" source="iENZt2j812Y5WJSHyIO9-16" target="iENZt2j812Y5WJSHyIO9-18">
          <mxGeometry relative="1" as="geometry" />
        </mxCell>
        <mxCell id="iENZt2j812Y5WJSHyIO9-16" value="Click upload" style="rounded=0;whiteSpace=wrap;html=1;" vertex="1" parent="1">
          <mxGeometry x="790" y="900" width="170" height="100" as="geometry" />
        </mxCell>
        <mxCell id="iENZt2j812Y5WJSHyIO9-21" value="" style="edgeStyle=orthogonalEdgeStyle;rounded=0;orthogonalLoop=1;jettySize=auto;html=1;" edge="1" parent="1" source="iENZt2j812Y5WJSHyIO9-24" target="iENZt2j812Y5WJSHyIO9-20">
          <mxGeometry relative="1" as="geometry" />
        </mxCell>
        <mxCell id="iENZt2j812Y5WJSHyIO9-23" value="" style="edgeStyle=orthogonalEdgeStyle;rounded=0;orthogonalLoop=1;jettySize=auto;html=1;" edge="1" parent="1" source="iENZt2j812Y5WJSHyIO9-25" target="iENZt2j812Y5WJSHyIO9-22">
          <mxGeometry relative="1" as="geometry" />
        </mxCell>
        <mxCell id="iENZt2j812Y5WJSHyIO9-18" value="Is file valid?" style="rounded=0;whiteSpace=wrap;html=1;" vertex="1" parent="1">
          <mxGeometry x="1040" y="900" width="170" height="100" as="geometry" />
        </mxCell>
        <mxCell id="iENZt2j812Y5WJSHyIO9-20" value="The value found in seats up is displayed in the ward level component" style="rounded=0;whiteSpace=wrap;html=1;" vertex="1" parent="1">
          <mxGeometry x="1040" y="720" width="170" height="100" as="geometry" />
        </mxCell>
        <mxCell id="iENZt2j812Y5WJSHyIO9-22" value="A message is displayed advising that the file cannot be processed." style="rounded=0;whiteSpace=wrap;html=1;" vertex="1" parent="1">
          <mxGeometry x="1040" y="1080" width="170" height="100" as="geometry" />
        </mxCell>
        <mxCell id="iENZt2j812Y5WJSHyIO9-26" value="" style="edgeStyle=orthogonalEdgeStyle;rounded=0;orthogonalLoop=1;jettySize=auto;html=1;" edge="1" parent="1" source="iENZt2j812Y5WJSHyIO9-18" target="iENZt2j812Y5WJSHyIO9-25">
          <mxGeometry relative="1" as="geometry">
            <mxPoint x="1125" y="1000" as="sourcePoint" />
            <mxPoint x="1125" y="1080" as="targetPoint" />
          </mxGeometry>
        </mxCell>
        <mxCell id="iENZt2j812Y5WJSHyIO9-25" value="NO" style="text;html=1;align=center;verticalAlign=middle;whiteSpace=wrap;rounded=0;" vertex="1" parent="1">
          <mxGeometry x="1095" y="1020" width="60" height="30" as="geometry" />
        </mxCell>
        <mxCell id="iENZt2j812Y5WJSHyIO9-27" value="" style="edgeStyle=orthogonalEdgeStyle;rounded=0;orthogonalLoop=1;jettySize=auto;html=1;" edge="1" parent="1" source="iENZt2j812Y5WJSHyIO9-18" target="iENZt2j812Y5WJSHyIO9-24">
          <mxGeometry relative="1" as="geometry">
            <mxPoint x="1125" y="900" as="sourcePoint" />
            <mxPoint x="1125" y="820" as="targetPoint" />
          </mxGeometry>
        </mxCell>
        <mxCell id="iENZt2j812Y5WJSHyIO9-24" value="YES" style="text;html=1;align=center;verticalAlign=middle;whiteSpace=wrap;rounded=0;" vertex="1" parent="1">
          <mxGeometry x="1095" y="850" width="60" height="30" as="geometry" />
        </mxCell>
      </root>
    </mxGraphModel>
  </diagram>
</mxfile>
